<?xml version="1.0" standalone="no"?>
<!DOCTYPE svg PUBLIC "-//W3C//DTD SVG 20010904//EN"
 "http://www.w3.org/TR/2001/REC-SVG-20010904/DTD/svg10.dtd">
<svg version="1.0" xmlns="http://www.w3.org/2000/svg"
 width="1014.000000pt" height="1014.000000pt" viewBox="0 0 1014.000000 1014.000000"
 preserveAspectRatio="xMidYMid meet">
<metadata>
Created by potrace 1.11, written by Peter Selinger 2001-2013
</metadata>
<g transform="translate(0.000000,1014.000000) scale(0.100000,-0.100000)"
fill="#000000" stroke="none">
<path d="M317 10124 c-139 -29 -243 -122 -293 -260 -16 -46 -17 -136 -18
-1389 -1 -737 2 -1363 6 -1391 21 -141 124 -261 264 -309 45 -16 141 -17 1094
-20 575 -2 1056 -5 1070 -8 14 -3 54 -10 88 -17 434 -79 723 -389 828 -885 23
-110 23 -111 20 -825 -1 -393 -5 -728 -9 -744 -4 -15 -15 -57 -23 -93 -82
-354 -340 -618 -721 -737 -81 -25 -92 -28 -163 -40 -19 -3 -48 -9 -65 -12 -16
-4 -487 -8 -1045 -9 -1103 -3 -1066 -1 -1157 -58 -82 -52 -136 -122 -169 -217
-17 -52 -18 -116 -19 -1405 -1 -1237 0 -1355 16 -1413 22 -83 70 -153 143
-208 110 -84 1 -78 1511 -79 737 0 1362 3 1389 8 136 24 250 121 297 253 20
58 21 75 24 1104 1 575 6 1063 10 1085 9 50 24 127 29 140 1 6 8 30 15 55 7
25 23 69 37 98 13 29 24 55 24 58 0 3 24 43 53 87 114 174 258 291 467 379 80
34 197 71 265 83 17 2 41 8 55 12 14 4 340 8 725 10 741 2 768 1 939 -46 267
-73 481 -254 615 -519 35 -68 96 -245 106 -302 3 -19 11 -60 17 -90 8 -38 12
-355 13 -1050 1 -547 5 -1017 9 -1045 21 -135 127 -256 266 -301 52 -17 133
-18 1415 -18 1278 0 1363 1 1415 17 116 38 210 129 252 244 21 58 21 58 23
1398 0 737 -3 1364 -7 1393 -22 144 -130 266 -274 308 -53 15 -154 17 -1094
19 -569 2 -1048 6 -1065 8 -16 3 -46 9 -65 12 -19 4 -46 9 -60 12 -48 9 -176
55 -235 85 -97 49 -165 98 -241 174 -105 106 -170 210 -254 409 -17 39 -31 95
-55 207 -23 112 -23 120 -24 773 -1 586 3 739 23 840 79 396 347 677 759 794
56 16 122 33 147 36 25 4 54 10 65 13 11 3 479 6 1040 7 931 3 1024 4 1069 20
123 43 209 129 252 255 17 53 18 114 18 1415 0 1257 -2 1364 -18 1417 -42 138
-171 247 -314 266 -100 13 -2711 7 -2758 -6 -131 -38 -237 -145 -274 -275 -10
-38 -13 -260 -15 -1090 -1 -573 -5 -1055 -9 -1072 -4 -16 -11 -55 -17 -85 -89
-444 -423 -740 -934 -825 -122 -21 -1397 -20 -1515 1 -238 42 -419 131 -564
279 -113 115 -169 207 -257 420 -12 31 -47 165 -53 210 -4 23 -9 52 -13 65 -3
14 -7 478 -8 1031 -1 553 -5 1023 -9 1044 -24 124 -126 241 -252 286 l-59 22
-1348 1 c-931 1 -1365 -2 -1400 -10z"/>
</g>
</svg>
